
    <svg width="106.3mm" height="128.5mm" xmlns="http://www.w3.org/2000/svg">
      <g stroke="black" fill="none">
        <rect x="0" y="0" width="106.3mm" height="128.5mm" />
        <line x1="0" x2="106.3mm" y1="9.25mm" y2="9.25mm" stroke-dasharray="0.5mm" />
        <line x1="0" x2="106.3mm" y1="119.25mm" y2="119.25mm" stroke-dasharray="0.5mm" />
        
              <circle cx="7.5mm" cy="3mm" r="1.6mm" />
              <line x1="7.5mm" x2="7.5mm" y1="1.4mm" y2="4.6mm" />
              <line x1="5.9mm" x2="9.1mm" y1="3mm" y2="3mm" />
            
              <circle cx="7.5mm" cy="125.5mm" r="1.6mm" />
              <line x1="7.5mm" x2="7.5mm" y1="123.9mm" y2="127.1mm" />
              <line x1="5.9mm" x2="9.1mm" y1="125.5mm" y2="125.5mm" />
            
              <circle cx="53.22mm" cy="3mm" r="1.6mm" />
              <line x1="53.22mm" x2="53.22mm" y1="1.4mm" y2="4.6mm" />
              <line x1="51.62mm" x2="54.82mm" y1="3mm" y2="3mm" />
            
              <circle cx="53.22mm" cy="125.5mm" r="1.6mm" />
              <line x1="53.22mm" x2="53.22mm" y1="123.9mm" y2="127.1mm" />
              <line x1="51.62mm" x2="54.82mm" y1="125.5mm" y2="125.5mm" />
            
              <circle cx="98.94mm" cy="3mm" r="1.6mm" />
              <line x1="98.94mm" x2="98.94mm" y1="1.4mm" y2="4.6mm" />
              <line x1="97.34mm" x2="100.53999999999999mm" y1="3mm" y2="3mm" />
            
              <circle cx="98.94mm" cy="125.5mm" r="1.6mm" />
              <line x1="98.94mm" x2="98.94mm" y1="123.9mm" y2="127.1mm" />
              <line x1="97.34mm" x2="100.53999999999999mm" y1="125.5mm" y2="125.5mm" />
            
      </g>
    </svg>
  