
    <svg width="213mm" height="128.5mm" xmlns="http://www.w3.org/2000/svg">
      <g stroke="black" fill="none">
        <rect x="0" y="0" width="213mm" height="128.5mm" />
        <line x1="0" x2="213mm" y1="9.25mm" y2="9.25mm" stroke-dasharray="0.5mm" />
        <line x1="0" x2="213mm" y1="119.25mm" y2="119.25mm" stroke-dasharray="0.5mm" />
        
              <circle cx="7.5mm" cy="3mm" r="1.6mm" />
              <line x1="7.5mm" x2="7.5mm" y1="1.4mm" y2="4.6mm" />
              <line x1="5.9mm" x2="9.1mm" y1="3mm" y2="3mm" />
            
              <circle cx="7.5mm" cy="125.5mm" r="1.6mm" />
              <line x1="7.5mm" x2="7.5mm" y1="123.9mm" y2="127.1mm" />
              <line x1="5.9mm" x2="9.1mm" y1="125.5mm" y2="125.5mm" />
            
              <circle cx="73.54mm" cy="3mm" r="1.6mm" />
              <line x1="73.54mm" x2="73.54mm" y1="1.4mm" y2="4.6mm" />
              <line x1="71.94000000000001mm" x2="75.14mm" y1="3mm" y2="3mm" />
            
              <circle cx="73.54mm" cy="125.5mm" r="1.6mm" />
              <line x1="73.54mm" x2="73.54mm" y1="123.9mm" y2="127.1mm" />
              <line x1="71.94000000000001mm" x2="75.14mm" y1="125.5mm" y2="125.5mm" />
            
              <circle cx="139.58mm" cy="3mm" r="1.6mm" />
              <line x1="139.58mm" x2="139.58mm" y1="1.4mm" y2="4.6mm" />
              <line x1="137.98000000000002mm" x2="141.18mm" y1="3mm" y2="3mm" />
            
              <circle cx="139.58mm" cy="125.5mm" r="1.6mm" />
              <line x1="139.58mm" x2="139.58mm" y1="123.9mm" y2="127.1mm" />
              <line x1="137.98000000000002mm" x2="141.18mm" y1="125.5mm" y2="125.5mm" />
            
              <circle cx="205.62mm" cy="3mm" r="1.6mm" />
              <line x1="205.62mm" x2="205.62mm" y1="1.4mm" y2="4.6mm" />
              <line x1="204.02mm" x2="207.22mm" y1="3mm" y2="3mm" />
            
              <circle cx="205.62mm" cy="125.5mm" r="1.6mm" />
              <line x1="205.62mm" x2="205.62mm" y1="123.9mm" y2="127.1mm" />
              <line x1="204.02mm" x2="207.22mm" y1="125.5mm" y2="125.5mm" />
            
      </g>
    </svg>
  